# xmcd
# Copyright (C) 1995-1998 Ti Kan
#
# Track frame offsets:
#       150
#       15055
#       28144
#       48625
#       62824
#       82084
#       96994
#       124571
#       139840
#       159046
#       179419
#       199343
#       221239
#       241365
#       258466
#       275864
#       301480
#
# Disc length: 4353 seconds
#
# Revision: 0
# Processed by: cddbd v1.5.2PL0 Copyright (c) Steve Scherf et al.
# Submitted via: CD-Transfer v1.0
#
DISCID=fa10ff11
DTITLE=Various Artist - Swiss Electro
DYEAR=06
DGENRE=
TTITLE0=Shakedown - Fantasy
TTITLE1=Kid Chocolat - The Secret Of The Zombies
TTITLE2=Reverse Engineering - Soundsystem (Dumbfounded)
TTITLE3=Aloan - Fever
TTITLE4=Morphologue - Fragrance
TTITLE5=Sinner Dc - Nothing Cares In The Middle Of The Night
TTITLE6=Freedom Soundz Feat. Colonel Red - Pass The Chain
TTITLE7=Division Kent - Frantic
TTITLE8=Sumo - Keep On
TTITLE9=Love Motel - Lucky Day
TTITLE10=Kate Wax - A Red Icon
TTITLE11=Yello - Don Turbulento
TTITLE12=Cobalt - Dive
TTITLE13=Boodaman - Millionaire (New Environment)
TTITLE14=Supertaste - Jardins Des Planètes
TTITLE15=Romeo - Pulsion
TTITLE16=Water Lilly - You Kiss
EXTD=
EXTT0=
EXTT1=
EXTT2=
EXTT3=
EXTT4=
EXTT5=
EXTT6=
EXTT7=
EXTT8=
EXTT9=
EXTT10=
EXTT11=
EXTT12=
EXTT13=
EXTT14=
EXTT15=
EXTT16=
PLAYORDER=
